<!DOCTYPE svg PUBLIC "-//W3C//DTD SVG 20010904//EN" "http://www.w3.org/TR/2001/REC-SVG-20010904/DTD/svg10.dtd">
<svg version="1.0" xmlns="http://www.w3.org/2000/svg" width="52px" height="60px" viewBox="0 0 4430 5120" preserveAspectRatio="xMidYMid meet">
<g id="layer101" fill="#01b4e0" stroke="none">
 <path d="M1742 5101 c-177 -62 -292 -229 -292 -426 0 -54 -1 -55 -29 -55 -41 0 -81 -49 -81 -100 0 -51 40 -100 81 -100 l30 0 -3 -122 -3 -123 -27 -3 c-40 -5 -78 -55 -78 -104 0 -48 43 -98 84 -98 l26 0 0 -130 0 -130 -29 0 c-42 0 -81 -49 -81 -102 0 -48 43 -98 84 -98 l26 0 0 -130 0 -130 -29 0 c-41 0 -81 -49 -81 -100 0 -51 40 -100 81 -100 l29 0 0 -119 0 -119 -187 -4 c-177 -4 -191 -5 -245 -30 -175 -81 -381 -284 -635 -625 -218 -293 -329 -515 -368 -737 -19 -114 -20 -356 0 -467 84 -484 477 -870 953 -939 119 -18 354 -8 462 19 101 26 262 102 345 165 33 25 137 122 231 216 230 228 198 228 428 0 94 -94 198 -191 231 -216 83 -63 244 -139 345 -165 108 -27 343 -37 462 -19 424 62 777 367 919 795 l33 100 4 246 c3 221 1 254 -17 333 -59 247 -230 534 -538 902 -170 202 -317 330 -451 392 -54 25 -68 26 -244 30 l-188 4 0 119 0 119 29 0 c41 0 81 49 81 100 0 51 -40 100 -81 100 l-29 0 0 130 0 130 26 0 c41 0 84 50 84 98 0 53 -39 102 -81 102 l-29 0 0 130 0 130 26 0 c41 0 84 50 84 98 0 49 -38 99 -78 104 l-27 3 -3 123 -3 122 30 0 c41 0 81 49 81 100 0 51 -40 100 -81 100 -28 0 -29 1 -29 55 0 178 -93 331 -247 407 l-68 33 -440 2 c-406 3 -444 1 -493 -16z m903 -207 c88 -47 126 -106 133 -206 l5 -68 -563 0 -563 0 5 68 c7 96 46 159 123 200 53 28 94 30 460 29 348 -2 361 -3 400 -23z m135 -594 l0 -120 -560 0 -560 0 0 120 0 120 560 0 560 0 0 -120z m0 -460 l0 -130 -560 0 -560 0 0 130 0 130 560 0 560 0 0 -130z m0 -460 l0 -130 -560 0 -560 0 0 130 0 130 560 0 560 0 0 -130z m0 -450 l0 -120 -560 0 -560 0 0 120 0 120 560 0 560 0 0 -120z m565 -349 c216 -98 699 -705 822 -1032 55 -146 66 -220 60 -403 -4 -136 -8 -175 -31 -249 -97 -323 -338 -565 -658 -658 -112 -33 -334 -38 -449 -11 -189 45 -280 105 -500 330 -201 205 -245 232 -369 232 -124 0 -168 -27 -369 -232 -220 -225 -311 -285 -500 -330 -115 -27 -337 -22 -449 11 -319 93 -561 335 -658 658 -35 115 -45 352 -21 479 42 220 177 462 443 794 126 157 220 257 312 331 135 109 3 99 1242 99 1028 0 1087 -1 1125 -19z"/>
 <path d="M637 1680 c-40 -12 -55 -27 -66 -66 -12 -45 3 -98 34 -118 39 -26 104 -21 137 11 39 38 40 108 2 147 -15 14 -32 26 -40 26 -7 0 -18 2 -26 4 -7 2 -26 0 -41 -4z"/>
 <path d="M580 1387 c-51 -26 -60 -81 -36 -209 32 -168 110 -314 231 -433 118 -117 270 -188 429 -202 110 -9 156 22 156 105 0 50 -30 90 -73 96 -18 2 -63 10 -102 16 -146 24 -293 135 -368 277 -38 72 -77 202 -77 254 0 84 -84 135 -160 96z"/>
 </g>

</svg>